0
SECTION
2
HEADER
9
$ACADVER
1
AC1014
9
$HANDSEED
5
FFFF
0
ENDSEC
0
SECTION
2
TABLES
0
TABLE
2
VPORT
5
8
100
AcDbSymbolTable
0
ENDTAB
0
TABLE
2
LTYPE
5
5
100
AcDbSymbolTable
0
LTYPE
5
14
100
AcDbSymbolTableRecord
100
AcDbLinetypeTableRecord
2
BYBLOCK
70
0
0
LTYPE
5
15
100
AcDbSymbolTableRecord
100
AcDbLinetypeTableRecord
2
BYLAYER
70
0
0
ENDTAB
0
TABLE
2
LAYER
5
2
100
AcDbSymbolTable
70
2
0
LAYER
5
50
100
AcDbSymbolTableRecord
100
AcDbLayerTableRecord
2
0
70
0
6
CONTINUOUS
0
ENDTAB
0
TABLE
2
STYLE
5
3
100
AcDbSymbolTable
70
1
0
STYLE
5
11
100
AcDbSymbolTableRecord
100
AcDbTextStyleTableRecord
2
STANDARD
70
0
0
ENDTAB
0
TABLE
2
VIEW
5
6
100
AcDbSymbolTable
70
0
0
ENDTAB
0
TABLE
2
UCS
5
7
100
AcDbSymbolTable
70
0
0
ENDTAB
0
TABLE
2
APPID
5
9
100
AcDbSymbolTable
70
2
0
APPID
5
12
100
AcDbSymbolTableRecord
100
AcDbRegAppTableRecord
2
ACAD
70
0
0
ENDTAB
0
TABLE
2
DIMSTYLE
5
A
100
AcDbSymbolTable
70
1
0
ENDTAB
0
TABLE
2
BLOCK_RECORD
5
1
100
AcDbSymbolTable
70
1
0
BLOCK_RECORD
5
1F
100
AcDbSymbolTableRecord
100
AcDbBlockTableRecord
2
*MODEL_SPACE
0
BLOCK_RECORD
5
1B
100
AcDbSymbolTableRecord
100
AcDbBlockTableRecord
2
*PAPER_SPACE
0
ENDTAB
0
ENDSEC
0
SECTION
2
BLOCKS
0
BLOCK
5
20
100
AcDbEntity
100
AcDbBlockBegin
2
*MODEL_SPACE
0
ENDBLK
5
21
100
AcDbEntity
100
AcDbBlockEnd
0
BLOCK
5
1C
100
AcDbEntity
100
AcDbBlockBegin
2
*PAPER_SPACE
0
ENDBLK
5
1D
100
AcDbEntity
100
AcDbBlockEnd
0
ENDSEC
0
SECTION
2
ENTITIES
0
CIRCLE
5
100
100
AcDbEntity
8
0
100
AcDbCircle
10
-195.97500000000039
20
-56.900000000000304
30
0
40
1.4544417424359324
0
CIRCLE
5
101
100
AcDbEntity
8
0
100
AcDbCircle
10
-204.97500000000036
20
-56.900000000000318
30
0
40
1.4142135834465108
0
LWPOLYLINE
5
102
100
AcDbEntity
8
0
100
AcDbPolyline
90
52
70
1
43
0.0
10
94.000000000000028
20
28.000000000000007
10
86.200000000000031
20
28.000000000000011
10
86.200000000000031
20
29.250000000000007
10
83.800000000000026
20
29.250000000000007
10
83.800000000000026
20
23.749999999999957
10
86.200000000000031
20
23.749999999999936
10
86.200000000000031
20
25.000000000000014
10
94.000000000000028
20
25.000000000000014
10
94.000000000000028
20
-25.000000000000014
10
86.200000000000031
20
-25.000000000000014
10
86.200000000000031
20
-23.749999999999936
10
83.800000000000026
20
-23.749999999999957
10
83.800000000000026
20
-29.250000000000007
10
86.200000000000031
20
-29.250000000000007
10
86.200000000000031
20
-28.000000000000011
10
94.000000000000028
20
-28.000000000000007
10
94
20
-34.000000000000007
10
1.3750000000004479
20
-34.000000000000007
10
1.3750000000004503
20
-63.400000000000006
10
-24.024999999999558
20
-63.400000000000006
10
-24.024999999999537
20
-34.000000000000007
10
-190.97500000000042
20
-34.000000000000007
10
-190.97500000000039
20
-63.399999999999999
10
-216.37500000000043
20
-63.399999999999999
10
-216.37500000000043
20
-34.000000000000007
10
-266.75000000000006
20
-34.000000000000007
10
-266.75
20
-28.000000000000007
10
-258.94999999999999
20
-28.000000000000011
10
-258.94999999999999
20
-29.250000000000007
10
-256.55000000000001
20
-29.250000000000007
10
-256.55000000000001
20
-23.749999999999957
10
-258.94999999999999
20
-23.749999999999936
10
-258.94999999999999
20
-25.000000000000014
10
-266.75
20
-25.000000000000014
10
-266.75
20
25.000000000000014
10
-258.94999999999999
20
25.000000000000014
10
-258.94999999999999
20
23.749999999999936
10
-256.55000000000001
20
23.749999999999957
10
-256.55000000000001
20
29.250000000000007
10
-258.94999999999999
20
29.250000000000007
10
-258.94999999999999
20
28.000000000000011
10
-266.75
20
28.000000000000007
10
-266.75000000000006
20
33.000000000000007
10
-216.37500000000043
20
33.000000000000007
10
-216.37500000000043
20
63.399999999999999
10
-190.97500000000039
20
63.399999999999999
10
-190.97500000000039
20
33.000000000000007
10
-24.024999999999554
20
33.000000000000007
10
-24.024999999999554
20
63.400000000000006
10
1.3750000000004463
20
63.400000000000006
10
1.3750000000004547
20
33.000000000000007
10
94
20
33.000000000000007
0
CIRCLE
5
103
100
AcDbEntity
8
0
100
AcDbCircle
10
-11.324999999999552
20
46.625000000000007
30
0
40
3.8999999999999968
0
CIRCLE
5
104
100
AcDbEntity
8
0
100
AcDbCircle
10
-11.324999999999552
20
-46.625000000000007
30
0
40
3.9000000000000012
0
CIRCLE
5
105
100
AcDbEntity
8
0
100
AcDbCircle
10
-154.15905940891801
20
26.500000000000004
30
0
40
1.25
0
CIRCLE
5
106
100
AcDbEntity
8
0
100
AcDbCircle
10
-61.659059408918026
20
26.500000000000004
30
0
40
1.25
0
CIRCLE
5
107
100
AcDbEntity
8
0
100
AcDbCircle
10
-13.000000000000016
20
-28.500000000000007
30
0
40
1.9999999999999996
0
CIRCLE
5
108
100
AcDbEntity
8
0
100
AcDbCircle
10
46.124999999999986
20
15.500000000000004
30
0
40
1.5000000000000036
0
CIRCLE
5
109
100
AcDbEntity
8
0
100
AcDbCircle
10
0
20
26.500000000000004
30
0
40
2.0000000000000018
0
CIRCLE
5
110
100
AcDbEntity
8
0
100
AcDbCircle
10
57.375000000000007
20
-15.499999999999996
30
0
40
1.5000000000000036
0
CIRCLE
5
111
100
AcDbEntity
8
0
100
AcDbCircle
10
-215
20
0
30
0
40
5.8249999999999948
0
CIRCLE
5
112
100
AcDbEntity
8
0
100
AcDbCircle
10
-230.12500000000011
20
-15.500000000000005
30
0
40
1.4999999999999858
0
CIRCLE
5
113
100
AcDbEntity
8
0
100
AcDbCircle
10
15.125000000000002
20
15.500000000000007
30
0
40
1.5000000000000013
0
CIRCLE
5
114
100
AcDbEntity
8
0
100
AcDbCircle
10
-201.99999999999906
20
-28.499999999999911
30
0
40
1.9999999999999929
0
CIRCLE
5
115
100
AcDbEntity
8
0
100
AcDbCircle
10
0
20
-28.5
30
0
40
2.0000000000000018
0
CIRCLE
5
116
100
AcDbEntity
8
0
100
AcDbCircle
10
-202.00000000000128
20
28.500000000000195
30
0
40
1.9999999999999929
0
CIRCLE
5
117
100
AcDbEntity
8
0
100
AcDbCircle
10
30.625
20
0
30
0
40
11
0
CIRCLE
5
118
100
AcDbEntity
8
0
100
AcDbCircle
10
-215
20
26.500000000000004
30
0
40
1.9999999999999929
0
CIRCLE
5
119
100
AcDbEntity
8
0
100
AcDbCircle
10
-215
20
-28.5
30
0
40
1.9999999999999929
0
CIRCLE
5
120
100
AcDbEntity
8
0
100
AcDbCircle
10
-176.99999999999889
20
28.500000000000057
30
0
40
1.9999999999999929
0
CIRCLE
5
121
100
AcDbEntity
8
0
100
AcDbCircle
10
46.124999999999986
20
-15.499999999999996
30
0
40
1.5000000000000036
0
CIRCLE
5
122
100
AcDbEntity
8
0
100
AcDbCircle
10
-38.000000000000021
20
28.499999999999993
30
0
40
1.9999999999999973
0
CIRCLE
5
123
100
AcDbEntity
8
0
100
AcDbCircle
10
0
20
0
30
0
40
5.8250000000000002
0
CIRCLE
5
124
100
AcDbEntity
8
0
100
AcDbCircle
10
15.125
20
-15.499999999999998
30
0
40
1.5000000000000013
0
CIRCLE
5
125
100
AcDbEntity
8
0
100
AcDbCircle
10
-176.99999999999648
20
-28.499999999999901
30
0
40
1.9999999999999929
0
CIRCLE
5
126
100
AcDbEntity
8
0
100
AcDbCircle
10
57.375000000000007
20
15.500000000000009
30
0
40
1.5000000000000036
0
CIRCLE
5
127
100
AcDbEntity
8
0
100
AcDbCircle
10
-154.15905940891801
20
-26.500000000000004
30
0
40
1.25
0
CIRCLE
5
128
100
AcDbEntity
8
0
100
AcDbCircle
10
88.374999999999986
20
-15.499999999999996
30
0
40
1.5000000000000036
0
CIRCLE
5
129
100
AcDbEntity
8
0
100
AcDbCircle
10
-261.12500000000006
20
15.499999999999996
30
0
40
1.4999999999999858
0
CIRCLE
5
130
100
AcDbEntity
8
0
100
AcDbCircle
10
-245.62500000000003
20
2.55351295663786e-14
30
0
40
11.000000000000014
0
CIRCLE
5
131
100
AcDbEntity
8
0
100
AcDbCircle
10
72.875
20
0
30
0
40
11.000000000000005
0
CIRCLE
5
132
100
AcDbEntity
8
0
100
AcDbCircle
10
-61.659059408918026
20
-26.500000000000004
30
0
40
1.25
0
CIRCLE
5
133
100
AcDbEntity
8
0
100
AcDbCircle
10
-13.000000000000021
20
28.500000000000007
30
0
40
1.9999999999999996
0
CIRCLE
5
134
100
AcDbEntity
8
0
100
AcDbCircle
10
-38.000000000000007
20
-28.499999999999986
30
0
40
2.0000000000000018
0
CIRCLE
5
135
100
AcDbEntity
8
0
100
AcDbCircle
10
88.374999999999986
20
15.500000000000004
30
0
40
1.5000000000000036
0
CIRCLE
5
136
100
AcDbEntity
8
0
100
AcDbCircle
10
-230.12500000000011
20
15.499999999999998
30
0
40
1.5000000000000213
0
CIRCLE
5
137
100
AcDbEntity
8
0
100
AcDbCircle
10
-261.12500000000006
20
-15.500000000000009
30
0
40
1.4999999999999858
0
ENDSEC
0
SECTION
2
OBJECTS
0
DICTIONARY
5
C
100
AcDbDictionary
3
ACAD_GROUP
350
D
3
ACAD_MLINESTYLE
350
17
0
DICTIONARY
5
D
100
AcDbDictionary
0
DICTIONARY
5
1A
330
C
100
AcDbDictionary
0
DICTIONARY
5
17
100
AcDbDictionary
0
ENDSEC
0
EOF
